<svg xmlns="http://www.w3.org/2000/svg" display="none">
    <symbol id="close-icon" viewBox="0 0 17 17">
        <svg>
            <path d="M16.775 2.032a.649.649 0 010 .923l-5.038 5.084a.649.649 0 000 .923l5.07 5.084a.649.649 0 010 .923l-1.841 1.846a.661.661 0 01-.92 0l-5.1-5.067a.661.661 0 00-.92 0L2.954 16.8a.661.661 0 01-.92 0L.193 14.984a.649.649 0 010-.923l5.086-5.1a.649.649 0 000-.923L.193 2.955a.649.649 0 010-.923L2.05.187a.661.661 0 01.92 0L8.024 5.27a.645.645 0 00.92 0L14.014.2a.661.661 0 01.92 0z"/>
        </svg>
    </symbol>

    <symbol id="facebook" viewBox="0 0 11 23">
        <svg>
            <path d="M3.34 2.12A4.77 4.77 0 016.53 1h3.61v3.81H7.81a1.07 1.07 0 00-1.09.83v2.55h3.42c-.08 1.23-.24 2.45-.41 3.67h-3v10.87H2.21V11.86H0V8.21h2.19V4.66a3.83 3.83 0 011.15-2.54z"/>
        </svg>
    </symbol>

    <symbol id="instagram" viewBox="0 0 20 20">
        <svg>
            <path fill-rule="evenodd" clip-rule="evenodd" d="M2 0h16a2 2 0 012 2v16a2 2 0 01-2 2H2a2 2 0 01-2-2V2a2 2 0 012-2zm12 10a4 4 0 10-8 0 4 4 0 008 0zM2.5 18a.47.47 0 01-.5-.5V9h2.1a3.4 3.4 0 00-.1 1 6 6 0 1012 0 3.4 3.4 0 00-.1-1H18v8.5a.47.47 0 01-.5.5h-15zM17.863 4.863A.47.47 0 0018 4.5v-2a.47.47 0 00-.5-.5h-2a.47.47 0 00-.5.5v2a.47.47 0 00.5.5h2a.47.47 0 00.363-.137z"/>
        </svg>
    </symbol>

    <symbol id="login" viewBox="0 0 14 14">
        <svg>
            <path fill-rule="evenodd" clip-rule="evenodd"
                  d="M11.51 10.93V7l.06-.03V3.03a.62.62 0 00-.55-.56H9.84a1.13 1.13 0 01-1-.56 1.1 1.1 0 01-.18-.67 1.12 1.12 0 01.31-.73 1.15 1.15 0 01.65-.37h1.32a2.88 2.88 0 011.78.62c.371.284.673.65.88 1.07.142.281.23.586.26.9v8.2a2.88 2.88 0 01-.35 1.42 3.14 3.14 0 01-.71.86 3.003 3.003 0 01-.62.42c-.228.12-.475.201-.73.24a5.993 5.993 0 01-.64 0h-1a1.1 1.1 0 01-.69-.24 1.17 1.17 0 01-.21-1.67 1.18 1.18 0 01.66-.42h1.27a.67.67 0 00.41-.11.59.59 0 00.26-.5zm-5.28-2.8l.08-.07v-.01h-5a1.14 1.14 0 01-.78-.29 1.12 1.12 0 01-.39-.62 1.15 1.15 0 01.24-1c.183-.22.438-.37.72-.42h5.24l-.08-.08-1.5-1.5a1.19 1.19 0 01-.39-1 1.14 1.14 0 01.27-.67 1.12 1.12 0 01.7-.41 1.1 1.1 0 011 .28l3.39 3.39.111.117c.112.118.224.235.329.363a1 1 0 01.21.58 1.15 1.15 0 01-.31.87L8.35 9.38 6.5 11.24a1.18 1.18 0 01-.79.37 1.15 1.15 0 01-.95-.37 1.17 1.17 0 01-.19-1.33 1.24 1.24 0 01.23-.32l1.43-1.46z"/>
            <path d="M6.31 8.06h-5a1.14 1.14 0 01-.78-.29 1.12 1.12 0 01-.39-.62 1.15 1.15 0 01.24-1 1.21 1.21 0 01.72-.45h5.24l-.08-.08-1.5-1.5a1.19 1.19 0 01-.39-1 1.14 1.14 0 01.27-.67 1.12 1.12 0 01.7-.41 1.1 1.1 0 011 .28L9.73 5.7c.15.15.3.31.44.48a1 1 0 01.21.58 1.15 1.15 0 01-.31.87L8.35 9.38l-1.84 1.86a1.18 1.18 0 01-.79.37 1.15 1.15 0 01-.95-.37 1.17 1.17 0 01-.19-1.33 1.24 1.24 0 01.23-.32l1.43-1.44.08-.07-.01-.02z"/>
            <path d="M11.51 7V3.06a.62.62 0 00-.51-.57H9.82a1.13 1.13 0 01-1-.56A1.1 1.1 0 019 .51a1.15 1.15 0 01.65-.37h1.32a2.88 2.88 0 011.78.62c.357.28.648.634.85 1.04.142.281.23.586.26.9v8.2a2.88 2.88 0 01-.35 1.42 3.143 3.143 0 01-.71.86 3.006 3.006 0 01-.62.42c-.228.12-.475.201-.73.24a5.94 5.94 0 01-.64 0h-1a1.1 1.1 0 01-.69-.24 1.17 1.17 0 01-.21-1.6 1.18 1.18 0 01.66-.42h1.27a.67.67 0 00.41-.11.59.59 0 00.26-.5V7z"/>
        </svg>
    </symbol>

    <symbol id="vk" viewBox="0 0 28 16">
        <svg>
            <path d="M27 14.47l-.09-.17a13.552 13.552 0 00-2.6-3c-.58-.553-.947-.927-1.1-1.12A1 1 0 0123 9c.343-.635.752-1.231 1.22-1.78l.88-1.16c1.567-2.087 2.233-3.42 2-4l-.1-.12a.8.8 0 00-.4-.22 2.14 2.14 0 00-.87 0h-3.92a.51.51 0 00-.27 0h-.3a.598.598 0 00-.15.14.925.925 0 00-.14.24 22.239 22.239 0 01-1.46 3.06 25.3 25.3 0 01-.93 1.46 7.009 7.009 0 01-.71.91 4.945 4.945 0 01-.52.47c-.153.12-.27.17-.35.15l-.23-.05a.9.9 0 01-.31-.33 1.488 1.488 0 01-.16-.53V2.6c.02-.206.02-.414 0-.62a2.128 2.128 0 00-.14-.44.73.73 0 00-.28-.33 1.571 1.571 0 00-.46-.18A9 9 0 0013.57 1a8.93 8.93 0 00-3.25.33 1.83 1.83 0 00-.52.41c-.167.2-.19.31-.07.33.45.032.87.245 1.16.59l.08.16c.09.201.154.413.19.63.067.33.107.664.12 1 .046.566.046 1.134 0 1.7-.047.473-.09.84-.13 1.1a2.211 2.211 0 01-.18.64c-.047.103-.1.203-.16.3l-.07.07a1 1 0 01-.37.07.86.86 0 01-.46-.19 3.27 3.27 0 01-.56-.52 7 7 0 01-.66-.93 15 15 0 01-.76-1.42l-.22-.39c-.133-.253-.32-.623-.56-1.11a15.22 15.22 0 01-.62-1.43.9.9 0 00-.33-.44h-.07a.93.93 0 00-.22-.16 1.44 1.44 0 00-.31-.09l-3.73.03a1 1 0 00-.77.26L1 2a.44.44 0 000 .22c.005.127.032.252.08.37a43.546 43.546 0 001.78 3.72c.64 1.187 1.193 2.143 1.66 2.87.473.727.967 1.413 1.48 2.06s.847 1.06 1 1.24l.37.41.34.33c.312.286.647.547 1 .78.451.324.918.624 1.4.9a7.597 7.597 0 001.79.72c.65.182 1.326.256 2 .22h1.57a1.08 1.08 0 00.72-.3l.05-.07a.904.904 0 00.1-.25 1.38 1.38 0 000-.37 4.476 4.476 0 01.09-1.05c.044-.246.122-.485.23-.71a1.74 1.74 0 01.29-.4c.068-.076.145-.143.23-.2h.11a.86.86 0 01.77.21c.31.227.588.493.83.79.26.313.57.663.93 1.05.302.324.638.615 1 .87l.27.16c.224.127.462.228.71.3.243.087.505.111.76.07l3.48-.05a1.58 1.58 0 00.8-.17.68.68 0 00.34-.37 1.062 1.062 0 000-.46 1.716 1.716 0 00-.1-.36l-.08-.06z"/>
        </svg>
    </symbol>

    <symbol id="filter" viewBox="0 0 512 512">
        <svg>
            <g>
                <path d="m420.404 0h-328.808c-50.506 0-91.596 41.09-91.596 91.596v328.809c0 50.505 41.09 91.595 91.596 91.595h328.809c50.505 0 91.595-41.09 91.595-91.596v-328.808c0-50.506-41.09-91.596-91.596-91.596zm61.596 420.404c0 33.964-27.632 61.596-61.596 61.596h-328.808c-33.964 0-61.596-27.632-61.596-61.596v-328.808c0-33.964 27.632-61.596 61.596-61.596h328.809c33.963 0 61.595 27.632 61.595 61.596z"/>
                <path d="m432.733 112.467h-228.461c-6.281-18.655-23.926-32.133-44.672-32.133s-38.391 13.478-44.672 32.133h-35.661c-8.284 0-15 6.716-15 15s6.716 15 15 15h35.662c6.281 18.655 23.926 32.133 44.672 32.133s38.391-13.478 44.672-32.133h228.461c8.284 0 15-6.716 15-15s-6.716-15-15.001-15zm-273.133 32.133c-9.447 0-17.133-7.686-17.133-17.133s7.686-17.133 17.133-17.133 17.133 7.686 17.133 17.133-7.686 17.133-17.133 17.133z"/>
                <path d="m432.733 241h-35.662c-6.281-18.655-23.927-32.133-44.672-32.133s-38.39 13.478-44.671 32.133h-228.461c-8.284 0-15 6.716-15 15s6.716 15 15 15h228.461c6.281 18.655 23.927 32.133 44.672 32.133s38.391-13.478 44.672-32.133h35.662c8.284 0 15-6.716 15-15s-6.716-15-15.001-15zm-80.333 32.133c-9.447 0-17.133-7.686-17.133-17.133s7.686-17.133 17.133-17.133 17.133 7.686 17.133 17.133-7.686 17.133-17.133 17.133z"/>
                <path d="m432.733 369.533h-164.194c-6.281-18.655-23.926-32.133-44.672-32.133s-38.391 13.478-44.672 32.133h-99.928c-8.284 0-15 6.716-15 15s6.716 15 15 15h99.928c6.281 18.655 23.926 32.133 44.672 32.133s38.391-13.478 44.672-32.133h164.195c8.284 0 15-6.716 15-15s-6.716-15-15.001-15zm-208.866 32.134c-9.447 0-17.133-7.686-17.133-17.133s7.686-17.133 17.133-17.133 17.133 7.685 17.133 17.132-7.686 17.134-17.133 17.134z"/>
            </g>
        </svg>
    </symbol>
</svg>
