<svg width="28" height="16" viewBox="0 0 28 16" xmlns="http://www.w3.org/2000/svg">
<path d="M27.0001 14.47L26.9101 14.3C26.1954 13.1778 25.3193 12.1669 24.3101 11.3C23.7301 10.7467 23.3634 10.3733 23.2101 10.18C22.886 9.87685 22.8005 9.39637 23.0001 9.00001C23.3431 8.36548 23.752 7.76886 24.2201 7.22001L25.1001 6.06001C26.6667 3.97335 27.3334 2.64001 27.1001 2.06001L27.0001 1.94001C26.8909 1.82939 26.7519 1.75294 26.6001 1.72001C26.3131 1.66044 26.017 1.66044 25.7301 1.72001H21.8101C21.7217 1.69576 21.6284 1.69576 21.5401 1.72001H21.2401C21.1824 1.75772 21.1316 1.80508 21.0901 1.86001C21.0316 1.93255 20.9844 2.01345 20.9501 2.10001C20.542 3.15571 20.0539 4.17868 19.4901 5.16001C19.1567 5.72001 18.8467 6.20668 18.5601 6.62001C18.3488 6.94237 18.1114 7.24674 17.8501 7.53001C17.6881 7.69879 17.5143 7.85586 17.3301 8.00001C17.1767 8.12001 17.0601 8.17001 16.9801 8.15001L16.7501 8.10001C16.6203 8.01823 16.5136 7.90463 16.4401 7.77001C16.3541 7.60489 16.2998 7.42512 16.2801 7.24001V2.60001C16.3005 2.39385 16.3005 2.18617 16.2801 1.98001C16.2495 1.82869 16.2026 1.68114 16.1401 1.54001C16.0822 1.40424 15.9846 1.28918 15.8601 1.21001C15.7172 1.12612 15.5619 1.06536 15.4001 1.03001C14.7927 0.957852 14.1795 0.9478 13.5701 1.00001C12.4756 0.909242 11.3739 1.02111 10.3201 1.33001C10.1232 1.43392 9.94701 1.57286 9.80006 1.74001C9.63339 1.94001 9.61006 2.05001 9.73006 2.07001C10.1806 2.10172 10.5991 2.31457 10.8901 2.66001L10.9701 2.82001C11.0598 3.02112 11.1237 3.23281 11.1601 3.45001C11.2266 3.77962 11.2667 4.11402 11.2801 4.45001C11.3256 5.01576 11.3256 5.58426 11.2801 6.15001C11.2334 6.62335 11.1901 6.99001 11.1501 7.25001C11.1227 7.4712 11.062 7.68698 10.9701 7.89001C10.9231 7.99329 10.8697 8.09349 10.8101 8.19001L10.7401 8.26001C10.6223 8.30657 10.4967 8.33032 10.3701 8.33001C10.2013 8.3134 10.0413 8.2473 9.91006 8.14001C9.70371 7.98916 9.51576 7.81464 9.35006 7.62001C9.10513 7.32848 8.8844 7.01745 8.69006 6.69001C8.44339 6.29001 8.19006 5.81668 7.93006 5.27001L7.71006 4.88001C7.57672 4.62668 7.39006 4.25668 7.15006 3.77001C6.91006 3.28335 6.70339 2.80668 6.53006 2.34001C6.46866 2.1625 6.35327 2.00865 6.20006 1.90001H6.13006C6.06496 1.83618 5.99083 1.78227 5.91006 1.74001C5.81042 1.69849 5.70644 1.6683 5.60006 1.65001L1.87006 1.68001C1.58816 1.65377 1.30834 1.74825 1.10006 1.94001L1.00006 2.00001C0.981427 2.07216 0.981427 2.14786 1.00006 2.22001C1.00473 2.34709 1.03181 2.47235 1.08006 2.59001C1.62672 3.88335 2.22006 5.12335 2.86006 6.31001C3.50006 7.49668 4.05339 8.45335 4.52006 9.18001C4.99339 9.90668 5.48672 10.5933 6.00006 11.24C6.51339 11.8867 6.84672 12.3 7.00006 12.48L7.37006 12.89L7.71006 13.22C8.02238 13.5059 8.35675 13.7667 8.71006 14C9.16113 14.3236 9.6284 14.624 10.1101 14.9C10.6737 15.2151 11.2752 15.457 11.9001 15.62C12.5503 15.8019 13.2259 15.8762 13.9001 15.84H15.4701C15.739 15.8332 15.9958 15.7262 16.1901 15.54L16.2401 15.47C16.2857 15.3922 16.3194 15.3079 16.3401 15.22C16.3567 15.0972 16.3567 14.9728 16.3401 14.85C16.3286 14.4977 16.3589 14.1453 16.4301 13.8C16.4743 13.5541 16.5517 13.3152 16.6601 13.09C16.7372 12.9436 16.8349 12.8089 16.9501 12.69C17.0178 12.6138 17.0951 12.5465 17.1801 12.49H17.2901C17.5656 12.4295 17.8534 12.5079 18.0601 12.7C18.3691 12.9271 18.648 13.1925 18.8901 13.49C19.1501 13.8033 19.4601 14.1533 19.8201 14.54C20.1224 14.8638 20.4576 15.1553 20.8201 15.41L21.0901 15.57C21.3142 15.6973 21.5525 15.798 21.8001 15.87C22.0434 15.9572 22.3049 15.9813 22.5601 15.94L26.0401 15.89C26.317 15.9045 26.5929 15.8459 26.8401 15.72C26.9965 15.6446 27.1181 15.5122 27.1801 15.35C27.2137 15.1985 27.2137 15.0415 27.1801 14.89C27.16 14.7667 27.1264 14.646 27.0801 14.53L27.0001 14.47Z"/>
</svg>
