<svg xmlns="http://www.w3.org/2000/svg" width="17" height="17" viewBox="0 0 17 17">
  <path id="Shape" d="M16.775,2.032a.649.649,0,0,1,0,.923L11.737,8.039a.649.649,0,0,0,0,.923l5.07,5.084a.649.649,0,0,1,0,.923l-1.841,1.846a.661.661,0,0,1-.92,0l-5.1-5.067a.661.661,0,0,0-.92,0L2.954,16.8a.661.661,0,0,1-.92,0L.193,14.984a.649.649,0,0,1,0-.923l5.086-5.1a.649.649,0,0,0,0-.923L.193,2.955a.649.649,0,0,1,0-.923L2.05.187a.661.661,0,0,1,.92,0L8.024,5.27a.645.645,0,0,0,.92,0L14.014.2a.661.661,0,0,1,.92,0Z"/>
</svg>
